<?xml version="1.0" encoding="UTF-8"?>
<svg width="1086" height="1448" viewBox="0 0 1086 1448" xmlns="http://www.w3.org/2000/svg">
  <defs>
    <linearGradient id="pageBg" x1="0" y1="0" x2="1" y2="1">
      <stop offset="0%" stop-color="#F8FBFF"/>
      <stop offset="100%" stop-color="#EAF3FF"/>
    </linearGradient>
  </defs>

  <rect width="1086" height="1448" fill="url(#pageBg)"/>

  <g opacity="0.26">
    <circle cx="50" cy="70" r="7" fill="#9EC5FF"/>
<circle cx="78" cy="70" r="7" fill="#9EC5FF"/>
<circle cx="106" cy="70" r="7" fill="#9EC5FF"/>
<circle cx="134" cy="70" r="7" fill="#9EC5FF"/>
<circle cx="162" cy="70" r="7" fill="#9EC5FF"/>
<circle cx="190" cy="70" r="7" fill="#9EC5FF"/>
<circle cx="218" cy="70" r="7" fill="#9EC5FF"/>
<circle cx="246" cy="70" r="7" fill="#9EC5FF"/>
<circle cx="274" cy="70" r="7" fill="#9EC5FF"/>
<circle cx="302" cy="70" r="7" fill="#9EC5FF"/>
<circle cx="50" cy="98" r="7" fill="#9EC5FF"/>
<circle cx="78" cy="98" r="7" fill="#9EC5FF"/>
<circle cx="106" cy="98" r="7" fill="#9EC5FF"/>
<circle cx="134" cy="98" r="7" fill="#9EC5FF"/>
<circle cx="162" cy="98" r="7" fill="#9EC5FF"/>
<circle cx="190" cy="98" r="7" fill="#9EC5FF"/>
<circle cx="218" cy="98" r="7" fill="#9EC5FF"/>
<circle cx="246" cy="98" r="7" fill="#9EC5FF"/>
<circle cx="274" cy="98" r="7" fill="#9EC5FF"/>
<circle cx="302" cy="98" r="7" fill="#9EC5FF"/>
<circle cx="50" cy="126" r="7" fill="#9EC5FF"/>
<circle cx="78" cy="126" r="7" fill="#9EC5FF"/>
<circle cx="106" cy="126" r="7" fill="#9EC5FF"/>
<circle cx="134" cy="126" r="7" fill="#9EC5FF"/>
<circle cx="162" cy="126" r="7" fill="#9EC5FF"/>
<circle cx="190" cy="126" r="7" fill="#9EC5FF"/>
<circle cx="218" cy="126" r="7" fill="#9EC5FF"/>
<circle cx="246" cy="126" r="7" fill="#9EC5FF"/>
<circle cx="274" cy="126" r="7" fill="#9EC5FF"/>
<circle cx="302" cy="126" r="7" fill="#9EC5FF"/>
<circle cx="50" cy="154" r="7" fill="#9EC5FF"/>
<circle cx="78" cy="154" r="7" fill="#9EC5FF"/>
<circle cx="106" cy="154" r="7" fill="#9EC5FF"/>
<circle cx="134" cy="154" r="7" fill="#9EC5FF"/>
<circle cx="162" cy="154" r="7" fill="#9EC5FF"/>
<circle cx="190" cy="154" r="7" fill="#9EC5FF"/>
<circle cx="218" cy="154" r="7" fill="#9EC5FF"/>
<circle cx="246" cy="154" r="7" fill="#9EC5FF"/>
<circle cx="274" cy="154" r="7" fill="#9EC5FF"/>
<circle cx="302" cy="154" r="7" fill="#9EC5FF"/>
<circle cx="50" cy="182" r="7" fill="#9EC5FF"/>
<circle cx="78" cy="182" r="7" fill="#9EC5FF"/>
<circle cx="106" cy="182" r="7" fill="#9EC5FF"/>
<circle cx="134" cy="182" r="7" fill="#9EC5FF"/>
<circle cx="162" cy="182" r="7" fill="#9EC5FF"/>
<circle cx="190" cy="182" r="7" fill="#9EC5FF"/>
<circle cx="218" cy="182" r="7" fill="#9EC5FF"/>
<circle cx="246" cy="182" r="7" fill="#9EC5FF"/>
<circle cx="274" cy="182" r="7" fill="#9EC5FF"/>
<circle cx="302" cy="182" r="7" fill="#9EC5FF"/>
<circle cx="50" cy="210" r="7" fill="#9EC5FF"/>
<circle cx="78" cy="210" r="7" fill="#9EC5FF"/>
<circle cx="106" cy="210" r="7" fill="#9EC5FF"/>
<circle cx="134" cy="210" r="7" fill="#9EC5FF"/>
<circle cx="162" cy="210" r="7" fill="#9EC5FF"/>
<circle cx="190" cy="210" r="7" fill="#9EC5FF"/>
<circle cx="218" cy="210" r="7" fill="#9EC5FF"/>
<circle cx="246" cy="210" r="7" fill="#9EC5FF"/>
<circle cx="274" cy="210" r="7" fill="#9EC5FF"/>
<circle cx="302" cy="210" r="7" fill="#9EC5FF"/>
<circle cx="50" cy="238" r="7" fill="#9EC5FF"/>
<circle cx="78" cy="238" r="7" fill="#9EC5FF"/>
<circle cx="106" cy="238" r="7" fill="#9EC5FF"/>
<circle cx="134" cy="238" r="7" fill="#9EC5FF"/>
<circle cx="162" cy="238" r="7" fill="#9EC5FF"/>
<circle cx="190" cy="238" r="7" fill="#9EC5FF"/>
<circle cx="218" cy="238" r="7" fill="#9EC5FF"/>
<circle cx="246" cy="238" r="7" fill="#9EC5FF"/>
<circle cx="274" cy="238" r="7" fill="#9EC5FF"/>
<circle cx="302" cy="238" r="7" fill="#9EC5FF"/>
<circle cx="50" cy="266" r="7" fill="#9EC5FF"/>
<circle cx="78" cy="266" r="7" fill="#9EC5FF"/>
<circle cx="106" cy="266" r="7" fill="#9EC5FF"/>
<circle cx="134" cy="266" r="7" fill="#9EC5FF"/>
<circle cx="162" cy="266" r="7" fill="#9EC5FF"/>
<circle cx="190" cy="266" r="7" fill="#9EC5FF"/>
<circle cx="218" cy="266" r="7" fill="#9EC5FF"/>
<circle cx="246" cy="266" r="7" fill="#9EC5FF"/>
<circle cx="274" cy="266" r="7" fill="#9EC5FF"/>
<circle cx="302" cy="266" r="7" fill="#9EC5FF"/>
<circle cx="50" cy="294" r="7" fill="#9EC5FF"/>
<circle cx="78" cy="294" r="7" fill="#9EC5FF"/>
<circle cx="106" cy="294" r="7" fill="#9EC5FF"/>
<circle cx="134" cy="294" r="7" fill="#9EC5FF"/>
<circle cx="162" cy="294" r="7" fill="#9EC5FF"/>
<circle cx="190" cy="294" r="7" fill="#9EC5FF"/>
<circle cx="218" cy="294" r="7" fill="#9EC5FF"/>
<circle cx="246" cy="294" r="7" fill="#9EC5FF"/>
<circle cx="274" cy="294" r="7" fill="#9EC5FF"/>
<circle cx="302" cy="294" r="7" fill="#9EC5FF"/>
<circle cx="50" cy="322" r="7" fill="#9EC5FF"/>
<circle cx="78" cy="322" r="7" fill="#9EC5FF"/>
<circle cx="106" cy="322" r="7" fill="#9EC5FF"/>
<circle cx="134" cy="322" r="7" fill="#9EC5FF"/>
<circle cx="162" cy="322" r="7" fill="#9EC5FF"/>
<circle cx="190" cy="322" r="7" fill="#9EC5FF"/>
<circle cx="218" cy="322" r="7" fill="#9EC5FF"/>
<circle cx="246" cy="322" r="7" fill="#9EC5FF"/>
<circle cx="274" cy="322" r="7" fill="#9EC5FF"/>
<circle cx="302" cy="322" r="7" fill="#9EC5FF"/>
  </g>

  <g transform="translate(76 130)">
    <text x="0" y="0" font-size="78" font-weight="850" fill="#0B1F4D" font-family="Arial, 'Microsoft YaHei', sans-serif">最后帮你快速记住重点</text>
  </g>

  <g transform="translate(76 355)">
    <rect x="0" y="0" width="330" height="58" rx="29" fill="#1769FF"/>
    <text x="34" y="38" font-size="28" font-weight="800" fill="#FFFFFF" font-family="Arial, 'Microsoft YaHei', sans-serif">📌 核心要点总结</text>
  </g>

  
      <rect x="76" y="470" width="934" height="124" rx="26" fill="#FFFFFF" stroke="#BFD5FF" stroke-width="2" opacity="1" />
      <circle cx="145" cy="532" r="42" fill="#1769FF"/>
      <text x="145" y="542" text-anchor="middle" font-size="28" font-weight="800" fill="#FFFFFF" font-family="Arial, 'Microsoft YaHei', sans-serif">01</text>
      <text x="220" y="524" font-size="32" font-weight="700" fill="#111827" font-family="Arial, 'Microsoft YaHei', sans-serif">先判断问题，不要直接做方案</text>
    

      <rect x="76" y="630" width="934" height="124" rx="26" fill="#FFFFFF" stroke="#BFD5FF" stroke-width="2" opacity="1" />
      <circle cx="145" cy="692" r="42" fill="#1769FF"/>
      <text x="145" y="702" text-anchor="middle" font-size="28" font-weight="800" fill="#FFFFFF" font-family="Arial, 'Microsoft YaHei', sans-serif">02</text>
      <text x="220" y="684" font-size="32" font-weight="700" fill="#111827" font-family="Arial, 'Microsoft YaHei', sans-serif">用框架拆解，避免只凭感觉决策</text>
    

      <rect x="76" y="790" width="934" height="124" rx="26" fill="#FFFFFF" stroke="#BFD5FF" stroke-width="2" opacity="1" />
      <circle cx="145" cy="852" r="42" fill="#1769FF"/>
      <text x="145" y="862" text-anchor="middle" font-size="28" font-weight="800" fill="#FFFFFF" font-family="Arial, 'Microsoft YaHei', sans-serif">03</text>
      <text x="220" y="844" font-size="32" font-weight="700" fill="#111827" font-family="Arial, 'Microsoft YaHei', sans-serif">把结论转成行动，才是真正有价值</text>
    

  <g transform="translate(76 1000)">
    <rect x="0" y="0" width="934" height="230" rx="34" fill="#FFF0E8" stroke="#FFB197" stroke-width="2"/>
    <circle cx="90" cy="112" r="58" fill="#FF6A3D"/>
    <text x="90" y="124" text-anchor="middle" font-size="44" font-weight="800" fill="#FFFFFF" font-family="Arial, 'Microsoft YaHei', sans-serif">···</text>
    <text x="190" y="88" font-size="34" font-weight="800" fill="#111827" font-family="Arial, 'Microsoft YaHei', sans-serif">你还想看哪个方法论？</text>
    <rect x="190" y="118" width="330" height="66" rx="33" fill="#FF6A3D"/>
    <text x="355" y="162" text-anchor="middle" font-size="32" font-weight="850" fill="#FFFFFF" font-family="Arial, 'Microsoft YaHei', sans-serif">评论区聊聊～</text>
    <text x="190" y="215" font-size="28" font-weight="650" fill="#111827" font-family="Arial, 'Microsoft YaHei', sans-serif">需要完整模板可以扣 1 👇</text>
  </g>

  <g transform="translate(76 1270)">
    <rect x="0" y="0" width="160" height="46" rx="23" fill="#E5F0FF"/><text x="80" y="31" text-anchor="middle" font-size="22" font-weight="700" fill="#0B1F4D" font-family="Arial, 'Microsoft YaHei', sans-serif">#产品经理</text>
<rect x="190" y="0" width="160" height="46" rx="23" fill="#E5F0FF"/><text x="270" y="31" text-anchor="middle" font-size="22" font-weight="700" fill="#0B1F4D" font-family="Arial, 'Microsoft YaHei', sans-serif">#用户体验</text>
<rect x="380" y="0" width="160" height="46" rx="23" fill="#E5F0FF"/><text x="460" y="31" text-anchor="middle" font-size="22" font-weight="700" fill="#0B1F4D" font-family="Arial, 'Microsoft YaHei', sans-serif">#用户研究</text>
<rect x="570" y="0" width="160" height="46" rx="23" fill="#E5F0FF"/><text x="650" y="31" text-anchor="middle" font-size="22" font-weight="700" fill="#0B1F4D" font-family="Arial, 'Microsoft YaHei', sans-serif">#设计策略</text>
<rect x="760" y="0" width="160" height="46" rx="23" fill="#E5F0FF"/><text x="840" y="31" text-anchor="middle" font-size="22" font-weight="700" fill="#0B1F4D" font-family="Arial, 'Microsoft YaHei', sans-serif">#运营干货</text>
  </g>

  <text x="543" y="1370" text-anchor="middle" font-size="30" font-weight="800" fill="#0B1F4D" font-family="Arial, 'Microsoft YaHei', sans-serif">初一设计策略</text>
  <rect x="910" y="1322" width="112" height="54" rx="27" fill="#1769FF"/>
  <text x="966" y="1358" text-anchor="middle" font-size="26" font-weight="800" fill="#FFFFFF" font-family="Arial, 'Microsoft YaHei', sans-serif">6/6</text>
</svg>